<svg xmlns="http://www.w3.org/2000/svg" viewBox="0 0 32 32">
  <!-- GENERATED by scripts/icons.py — do not hand-edit.
       Traced from the app's launcher art so the browser tab and the phone
       home screen carry the same mark. Flat ground, no gradient: a favicon is
       16px and several renderers drop SVG gradients silently. -->
  <rect width="32" height="32" rx="7" fill="#161a21"/>
  <path fill="#c4e538" d="M19.25 1.31 19.38 1.31 18.5 2.19 18.31 2.69 18.31 3.19 18.69 3.94 19.88 5.31 20.12 5.88 20.12 6.19 19.94 6.62 19.62 6.94 19.0 7.25 17.75 7.56 17.38 7.5 17.06 7.19 17.0 6.94 17.06 6.62 17.38 6.31 18.44 6.19 18.94 6.06 19.19 5.88 18.12 4.12 17.94 3.56 17.94 2.75 18.25 2.12 18.81 1.56ZM14.06 8.44 15.44 8.44 16.56 8.69 17.12 9.19 17.38 10.0 17.19 10.69 16.88 11.06 16.44 11.31 15.62 11.38 15.19 11.25 14.31 11.25 13.5 11.44 12.62 11.88 11.56 12.88 10.69 14.38 10.25 16.12 10.25 17.94 10.38 18.69 10.75 19.94 11.12 20.75 11.75 21.69 12.44 22.44 13.25 23.06 14.0 23.44 15.0 23.69 15.88 23.69 17.12 23.31 17.88 22.81 18.62 22.06 19.44 20.69 19.88 19.19 19.94 17.0 19.69 15.75 19.25 14.56 19.25 14.19 19.44 13.62 19.94 13.12 20.44 12.94 20.88 12.94 21.5 13.19 21.81 13.5 22.38 14.88 22.75 16.75 22.75 19.06 22.5 20.44 22.06 21.75 21.31 23.19 20.81 23.88 19.69 25.0 18.88 25.56 17.88 26.06 16.19 26.5 14.69 26.5 13.12 26.12 11.81 25.5 10.56 24.56 9.38 23.25 8.38 21.56 7.75 19.88 7.44 18.19 7.38 16.69 7.62 14.75 8.31 12.75 9.12 11.38 10.06 10.31 11.5 9.25 12.62 8.75Z"/>
</svg>
